<?xml version="1.0" encoding="utf-8"?>
<svg version="1.1" xmlns="http://www.w3.org/2000/svg" xmlns:xlink="http://www.w3.org/1999/xlink" x="0px" y="0px"
	 viewBox="0 0 64 64" style="enable-background:new 0 0 64 64;" xml:space="preserve">
<g id="_x35_X7DQ5_1_">
	<g>
		<path style="fill: #FFF" d="M2.06,31.39c-0.07-0.46-0.1-0.95,0-1.4c0.03-0.15,0.86-2.57,3.35-2.59c1.17-0.01,2.08,0.57,2.75,1.53
			c0.82,1.16,1.63,2.33,2.45,3.49c0.48,0.68,0.96,1.36,1.46,2.06c0.01-0.07,0.03-0.11,0.03-0.15c-0.38-1.87-0.76-3.73-1.14-5.6
			c-0.84-4.21-1.67-8.42-2.51-12.63c-0.19-0.96,0.01-1.82,0.58-2.59c0.66-0.9,1.58-1.43,2.7-1.39c1.74,0.07,2.91,1.11,3.26,2.74
			c0.33,1.56,0.63,3.12,0.94,4.69c0.54,2.69,1.07,5.37,1.62,8.06c0.13,0.64,0.29,1.28,0.44,1.92c0.01,0.16,0.04,0.16,0,0
			c-0.06-0.62-0.11-1.24-0.18-1.86c-0.09-0.81-0.21-1.62-0.3-2.43c-0.09-0.77-0.18-1.54-0.27-2.31c-0.1-0.85-0.21-1.69-0.32-2.54
			c-0.1-0.77-0.21-1.54-0.3-2.31c-0.1-0.77-0.18-1.54-0.27-2.31c-0.09-0.77-0.14-1.55-0.28-2.31c-0.12-0.62-0.04-1.2,0.16-1.78
			c0.51-1.45,1.91-2.28,3.32-2.16c1.5,0.12,2.72,1.04,3.02,2.57c0.23,1.16,0.33,2.34,0.48,3.52c0.1,0.77,0.18,1.54,0.28,2.31
			c0.1,0.81,0.21,1.62,0.31,2.42c0.09,0.75,0.18,1.5,0.28,2.25c0.1,0.77,0.21,1.54,0.3,2.31c0.1,0.81,0.17,1.62,0.27,2.43
			c0.04,0.34,0.12,0.68,0.19,1.01c0.01,0.27,0.04,0.26,0,0c-0.05-1.69-0.1-3.39-0.14-5.08c0-0.04,0-0.08-0.01-0.12
			c-0.07-1.18-0.14-2.37-0.2-3.55c-0.04-0.78-0.08-1.55-0.11-2.33c-0.05-1.26-0.1-2.53-0.13-3.79c-0.03-1.22,0.45-2.2,1.45-2.9
			c0.68-0.47,1.44-0.71,2.27-0.58c1.69,0.25,2.88,1.56,2.97,3.32c0.09,1.69,0.15,3.38,0.23,5.07c0.04,0.91,0.08,1.83,0.12,2.74
			c0.05,1.11,0.09,2.22,0.13,3.32c0.05,1.38,0.09,2.76,0.14,4.14c0,0.04,0.02,0.07,0.04,0.13c0.04-0.55,0.11-1.07,0.12-1.59
			c0.05-2.3,0.09-4.59,0.13-6.89c0.02-0.99,0-1.99,0.02-2.98c0.01-0.43,0.04-0.86,0.12-1.28c0.13-0.62,0.42-1.18,0.92-1.59
			c0.82-0.67,1.75-0.95,2.82-0.83c1.63,0.19,2.93,1.67,2.83,3.24c-0.08,1.36-0.09,2.72-0.12,4.08c-0.04,1.71-0.08,3.43-0.11,5.14
			c-0.04,2.2-0.08,4.4-0.13,6.6c-0.03,1.46-0.08,2.92-0.11,4.38c-0.04,2.08-0.08,4.17-0.12,6.25c-0.03,1.46-0.06,2.92-0.11,4.38
			c-0.08,2.36,0,4.71,0.36,7.04c0.06,0.36,0.11,0.72,0.17,1.09c0.14,0.02,0.26,0.04,0.37,0.05c0.94,0.07,1.61,0.75,1.66,1.65
			c0.04,0.82-0.62,1.62-1.49,1.76c-0.38,0.06-0.77,0.09-1.16,0.14c-0.79,0.09-1.58,0.18-2.37,0.28c-0.77,0.1-1.54,0.2-2.31,0.3
			c-0.83,0.11-1.66,0.21-2.48,0.31c-0.75,0.09-1.5,0.19-2.26,0.27c-0.79,0.09-1.58,0.17-2.37,0.27c-0.79,0.1-1.58,0.21-2.37,0.31
			c-1.08,0.13-2.16,0.25-3.24,0.38c-0.38,0.05-0.76,0.12-1.14,0.19c-0.47,0-0.94,0-1.4,0c-0.1-0.05-0.21-0.1-0.31-0.16
			c-0.58-0.4-0.96-0.93-0.87-1.67c0.09-0.72,0.48-1.22,1.19-1.45c0.13-0.04,0.25-0.09,0.39-0.14c-0.06-0.54-0.13-1.06-0.19-1.58
			c-0.09-0.77-0.18-1.54-0.27-2.31c-0.05-0.42-0.22-0.77-0.46-1.11c-2.11-2.99-4.21-5.99-6.31-8.99c-1.69-2.41-3.37-4.82-5.06-7.23
			c-0.85-1.21-1.69-2.43-2.56-3.63C2.73,32.78,2.18,32.17,2.06,31.39z"/>
		<path style="fill: #FFF" d="M45,22.26c0.14-0.4,0.29-0.8,0.41-1.21c0.82-2.78,1.63-5.56,2.44-8.35c0.48-1.64,0.97-3.28,1.47-4.92
			c0.38-1.24,1.23-2,2.48-2.32c1.17-0.3,2.6,0.24,3.33,1.2c0.45,0.58,0.65,1.24,0.71,1.94c0.03,0.34-0.05,0.7-0.14,1.03
			c-0.7,2.41-1.42,4.82-2.13,7.22c-0.74,2.52-1.48,5.04-2.22,7.56c0,0.02,0,0.04,0.02,0.19c0.24-0.63,0.43-1.16,0.63-1.68
			c1.18-3.22,2.35-6.44,3.53-9.65c0.47-1.29,1.53-2.01,2.91-2.03c1.32-0.02,2.34,0.51,3.06,1.6c0.53,0.8,0.64,1.67,0.33,2.57
			c-0.51,1.45-1.05,2.89-1.58,4.33c-0.62,1.7-1.25,3.4-1.88,5.1c-0.96,2.61-1.92,5.23-2.88,7.84c-0.75,2.05-1.5,4.09-2.25,6.14
			c-1.06,2.91-2.15,5.81-3.18,8.72c-0.26,0.73-0.38,1.5-0.55,2.26c-0.17,0.74-0.32,1.48-0.47,2.23c-0.03,0.13,0,0.26,0,0.41
			c0.12,0.05,0.23,0.09,0.33,0.14c0.82,0.37,1.24,1.27,0.97,2.08c-0.27,0.8-1.12,1.36-2.03,1.16c-2.22-0.49-4.45-0.93-6.68-1.39
			c-0.47-0.1-0.87-0.31-1.26-0.64c-0.05-0.32-0.11-0.66-0.15-1c-0.06-0.7-0.14-1.39-0.15-2.09c-0.02-1.36,0-2.73,0.02-4.09
			c0.03-1.93,0.08-3.85,0.12-5.78c0.04-1.64,0.08-3.27,0.11-4.91c0.04-2.1,0.08-4.21,0.12-6.31c0.03-1.63,0.07-3.27,0.11-4.9
			c0.04-1.95,0.08-3.89,0.13-5.84c0.02-0.66,0.07-1.32,0.09-1.98c0.02-1.01-0.2-1.97-0.69-2.86c-0.1-0.18-0.13-0.36-0.08-0.56
			c0.48-2.24,0.96-4.49,1.43-6.73c0.13-0.61,0.25-1.22,0.39-1.82c0.32-1.34,1.2-2.2,2.51-2.49c1.34-0.29,2.54,0.11,3.37,1.23
			c0.56,0.75,0.84,1.61,0.63,2.59c-0.49,2.28-0.95,4.57-1.43,6.85c-0.47,2.25-0.94,4.49-1.41,6.73C45.31,20.62,45.16,21.44,45,22.26
			C44.97,22.34,44.98,22.34,45,22.26z"/>
		<path style="fill: #FFF" d="M39.32,12.92c-1.88-1.79-4.02-2.14-6.45-1.44c0.07-0.6,0.14-1.17,0.21-1.74c0.14-1.12,0.29-2.23,0.44-3.35
			c0.07-0.5,0.12-1.01,0.24-1.5c0.35-1.4,1.35-2.34,2.75-2.52c1.61-0.21,2.79,0.56,3.46,1.78c0.32,0.59,0.43,1.26,0.35,1.93
			c-0.17,1.29-0.36,2.58-0.54,3.87c-0.13,0.9-0.25,1.81-0.37,2.71C39.4,12.72,39.37,12.77,39.32,12.92z"/>
	</g>
</g>
</svg>
