<?xml version="1.0" encoding="utf-8"?>
<!-- Generator: Adobe Illustrator 22.0.1, SVG Export Plug-In . SVG Version: 6.00 Build 0)  -->
<svg version="1.1" id="Spanish" xmlns="http://www.w3.org/2000/svg" xmlns:xlink="http://www.w3.org/1999/xlink" x="0px" y="0px"
	 viewBox="0 0 300 180" style="enable-background:new 0 0 300 180;" xml:space="preserve">
<style type="text/css">
	.st0{fill:#FFFFFF;}
</style>
<g>
	<g>
		<g>
			<path class="st0" d="M248.2,27.9c-13.4,0-24.3,10.9-24.3,24.3s10.9,24.3,24.3,24.3s24.3-10.9,24.3-24.3
				C272.4,38.7,261.5,27.9,248.2,27.9z M267.1,38.6c-1.2,0.8-2.5,1.6-3.9,2.3c-0.8-1.6-1.8-3.1-2.9-4.5c1-0.6,1.9-1.3,2.8-2
				C264.6,35.5,265.9,37,267.1,38.6z M256.9,30.5c1.9,0.8,3.8,1.8,5.4,3.1c-0.8,0.7-1.7,1.3-2.7,1.9c-1.2-1.4-2.5-2.6-4-3.7
				C256.1,31.4,256.5,31,256.9,30.5z M258.8,36c-1.3,0.7-2.7,1.3-4.1,1.7c-0.6-1.3-1.3-2.7-2-4c0.8-0.3,1.5-0.8,2.2-1.3
				C256.3,33.5,257.6,34.7,258.8,36z M255.9,30.2c-0.3,0.4-0.7,0.8-1.1,1.1c-1.3-0.9-2.6-1.6-4.1-2.2
				C252.5,29.2,254.2,29.6,255.9,30.2z M254,31.9c-0.6,0.4-1.2,0.8-1.9,1c-0.7-1.1-1.5-2.2-2.3-3.3C251.3,30.3,252.7,31,254,31.9z
				 M248.7,29.8c0.9,1.1,1.7,2.2,2.5,3.4c-0.8,0.2-1.7,0.4-2.5,0.4C248.7,33.4,248.7,30.6,248.7,29.8z M248.7,34.7
				c1,0,2.1-0.2,3.1-0.6c0.7,1.2,1.4,2.5,2,3.9c-1.6,0.4-3.3,0.7-5,0.7C248.7,38.4,248.7,35,248.7,34.7z M247.7,29.9
				c0,0.8,0,3.5,0,3.8c-0.8,0-1.7-0.2-2.5-0.4C245.9,32.1,246.8,31,247.7,29.9z M244.2,32.9c-0.7-0.3-1.3-0.6-1.9-1
				c1.3-0.9,2.7-1.6,4.2-2.2C245.7,30.7,244.9,31.8,244.2,32.9z M245.6,29c-1.4,0.6-2.8,1.4-4.1,2.3c-0.4-0.3-0.7-0.7-1.1-1.1
				C242.1,29.6,243.9,29.2,245.6,29z M262.2,70.6c-3.2-1.8-3.3-4.2-3.1-5.1c0.2-0.9,0.8-0.5,1.2-0.5c2.1,0,4.4-0.6,7.1-3.4
				c3.1-3.2,4.1-10.2-0.7-14.8c-5.1-4.9-10.6-4.1-14.1,0.4c-0.7,0.9-2.5,1.6-4,1.5c-2.3-0.1-0.8,1.7-0.8,2.1c0,0.4-0.3,0.6-0.5,0.6
				c-0.8-0.2-0.5,0.9-0.5,1.3c0,0.3-0.3,0.5-0.5,0.5c-0.9,0-0.7,0.9-0.7,1.1c0,0.2-0.1,0.6-0.4,0.8c-0.3,0.2-0.7,0.9-0.7,1.5
				c0,1,0.9,1.7,2.5,2.9s1.8,2.3,1.8,3.1s0.1,2.1,0.5,2.9c0.4,1,0.4,2.9-1.8,3c-2.7,0.1-7.4,2.2-7.8,2.4c-1.5,0.5-3.5,0.7-5,0.3
				c-0.8-0.6-1.6-1.2-2.4-1.9c-0.3-1.1,0.2-2.2,0.8-3c0.9,0.9,2.2,0.8,2.9,0.9c0.7,0,4.4-0.5,4.9-0.7s0.7-0.1,1.1,0
				c1.4,0.5,3.3,0.7,4.1-2c0.8-2.7-1.1-1.9-1.3-1.8c-0.2,0.1-0.5,0.1-0.4-0.1c0.3-0.7-0.2-0.6-0.5-0.6c-0.7-0.1-1.7,0.7-2,1
				s-0.6,0.3-0.7,0.2c-1-0.5-3.9,0.2-4.8-1.4c0.1-0.4-0.7-6.9-1.2-8c-0.1-0.2-0.2-0.6,0.1-1.1c0.7-1.1,2.8,0.1,3.9,0.1
				c1.3,0,1.6-0.6,1.9-1c0.4-0.4,0.6-0.2,0.8-0.3c0.2-0.2,0-0.5,0.1-0.6c0.1-0.2,0.2-0.1,0.4-0.3s0-0.6,0.1-0.8
				c0.3-0.5,1.2-0.1,0.7-1.4c-0.3-0.7,0.1-1.5,0.5-2c0.6-0.8,3.2-4.4-1.3-8c-4.2-3.5-8.5-3.2-11.2-0.2s-1.4,7.3-1.1,8.5
				c0.3,1.1-0.5,2.2-1.5,2.6c-0.8,0.4-2.5,1.5-3.8,2.6c0.2-9.3,5.9-17.6,14.6-21.1c0.4,0.5,0.8,0.9,1.2,1.3c-1,0.7-3.1,2.6-3.1,2.6
				s0.3,0,0.6,0.1c0.2,0,0.6,0.2,0.6,0.2s1.9-1.6,2.7-2.2c0.7,0.5,1.4,0.9,2.2,1.3c-0.4,0.7-1.5,2.7-1.5,2.7s0.2,0.1,0.5,0.3
				c0.2,0.1,0.4,0.3,0.4,0.3s1.2-2.2,1.6-2.9c1,0.3,2,0.5,3,0.6c0,0.3,0,3.7,0,4c-0.6,0-2-0.1-2.6-0.1h-0.4l0.2,0.3
				c0.2,0.2,0.3,0.5,0.4,0.7v0.1h0.1c0.4,0,1.8,0.1,2.3,0.1c0,0.3,0,7.3,0,7.3h1c0,0,0-1.4,0-1.7c1.5-0.1,2.7-0.2,4.2-0.3h0.1
				l1.3-1.2l-0.7,0.1c-1.6,0.2-3,0.3-4.2,0.4c0,0-0.4,0-0.7,0c0-0.3,0-4.3,0-4.6c1.8,0,3.7-0.3,5.4-0.8c0.5,1.2,1.4,4.1,1.4,4.1
				l0.9-0.3c0,0-0.9-2.9-1.4-4.1c1.5-0.5,3-1.1,4.4-1.9c1.1,1.4,2.1,2.9,2.9,4.5c-0.7,0.3-2,0.8-2,0.8c1,0.1,1.8,0.4,1.8,0.4
				s0.4-0.2,0.6-0.3c0.1,0.2,0.3,0.6,0.3,0.6l1.3,0.6l-0.2-0.4c0,0-0.4-1-0.5-1.3c1.4-0.7,2.7-1.5,4-2.3c2.5,3.8,3.8,8.2,3.8,12.7
				C271.4,59.7,267.8,66.4,262.2,70.6z"/>
			<g>
				<path class="st0" d="M221.7,34.3l-0.4,0.3c-1.4,1.3-4.7,4.6-4.2,8.2l0.1,0.3l0.2,0.7l0.5-0.4c2-1.8,3.5-4.9,4.1-8.5l0.2-1
					L221.7,34.3z"/>
				<path class="st0" d="M215.1,40.6l-0.2,0.4c-0.2,0.6-0.6,1.9-0.9,3.6c-0.3,2.4-0.2,5.8,1.9,8.4l0.2,0.3l0.2,0.3l0.3-1.5
					c0.3-2.7-0.1-8.5-1.1-11l-0.3-0.9L215.1,40.6z"/>
				<path class="st0" d="M212.7,50.5V51c-0.2,2.5,0,8.5,4.9,11.7l0.6,0.4v-0.7c-0.1-2.3-2.8-9.1-4.8-11.6l-0.6-0.7L212.7,50.5z"/>
				<path class="st0" d="M213.5,61.3l0.1,0.4c0.7,3.5,4,9.1,9.1,10.7l0.7,0.2l-0.3-0.7c-0.9-2.6-5.9-8.7-9-10.7l-0.7-0.5L213.5,61.3
					z"/>
				<path class="st0" d="M223.8,39.5l-0.4,0.2c-3.8,2.3-5.6,5.1-5.4,8.6v0.8l0.6-0.5c2.1-1.7,4.6-6,5.4-8.5l0.3-0.9L223.8,39.5z"/>
				<path class="st0" d="M221.5,47.1l-0.3,0.3c-1,0.9-4.1,4.3-3.8,8.4c0,0.6,0.2,1.3,0.4,2l0.2,0.7l0.4-0.6
					c1.5-2.1,3.5-7.7,3.4-10.3v-0.8L221.5,47.1z"/>
				<path class="st0" d="M221.7,54.3l-0.2,0.3c-1.6,2.4-2.4,4.8-2.3,7c0,1.6,0.6,3.2,1.6,4.7l0.3,0.5l0.3-0.5
					c0.7-1.3,1.2-5.5,1.1-8.8c0-1.2-0.1-2.1-0.3-2.8L222,54L221.7,54.3z"/>
				<path class="st0" d="M223.5,62l-0.1,0.3c-0.5,1.5-0.7,3-0.7,4.4c0.1,3.2,1.5,5.7,4.2,7.5l0.5,0.3l0.1-0.6v-0.5
					c-0.1-2.6-2-9.2-3.5-11.2l-0.4-0.6L223.5,62z"/>
				<path class="st0" d="M218.2,72.1l0.2,0.3c2,3.4,5.5,7.8,12,6.7l0.5-0.1l-0.3-0.5c-1.2-1.8-9.1-6.2-11.9-6.7l-0.8-0.1L218.2,72.1
					z M218.7,72.1L218.7,72.1L218.7,72.1z"/>
				<path class="st0" d="M227.8,80.8L227.8,80.8l-1,0.3l1,0.4c4.1,1.7,9.3,2.2,12.3,1.2c1.1-0.4,1.8-1,2.6-1.8
					c5.3,0.5,10.2,4.9,13.1,8.5l0.2,0.2l0.2-0.1c0.3-0.1,0.8-0.5,1-0.7l0.2-0.2l-0.2-0.2c-3-3.9-7.7-6.4-7.9-6.5
					C245,79.8,237.6,78.2,227.8,80.8z"/>
				<path class="st0" d="M228,69.9l0.1,0.3c0.6,3.9,2.2,9,8.7,8.4h0.4l-0.1-0.4c-0.4-1.8-6.4-6.9-8.5-8.3l-0.6-0.3L228,69.9z"/>
			</g>
			<g>
				<path class="st0" d="M274.3,34l0.2,1c0.6,3.6,2.1,6.6,4.1,8.5l0.5,0.4l0.2-0.7c0,0,0-0.2,0.1-0.3c0.5-3.6-2.7-7-4.2-8.2
					l-0.4-0.3L274.3,34z"/>
				<path class="st0" d="M281.2,40.2l-0.3,0.9c-1,2.6-1.5,8.3-1.1,11l0.3,1.5l0.2-0.3l0.2-0.3c2.1-2.5,2.2-6,1.9-8.4
					c-0.2-1.7-0.6-3-0.9-3.6l-0.2-0.4L281.2,40.2z"/>
				<path class="st0" d="M283.7,50l-0.6,0.7c-2,2.5-4.7,9.3-4.8,11.6V63l0.6-0.4c4.9-3.2,5-9.3,4.9-11.7v-0.5L283.7,50z"/>
				<path class="st0" d="M283,60.9l-0.7,0.5c-3.2,2-8.1,8.1-9,10.7l-0.3,0.7l0.7-0.2c5.1-1.6,8.4-7.3,9.1-10.7l0.1-0.4L283,60.9z"/>
				<path class="st0" d="M272.4,39.2l0.3,0.9c0.7,2.5,3.2,6.9,5.2,8.6l0.5,0.5v-0.8c0.2-3.5-1.5-6.3-5.3-8.7l-0.4-0.3L272.4,39.2z"
					/>
				<path class="st0" d="M274.6,46.8v0.8c-0.1,2.6,1.9,8.2,3.4,10.3l0.4,0.6l0.2-0.7c0.2-0.7,0.4-1.4,0.4-2c0.3-4.1-2.9-7.5-3.8-8.4
					l-0.3-0.3L274.6,46.8z"/>
				<path class="st0" d="M274.5,54l-0.2,0.7c-0.2,0.7-0.3,1.6-0.3,2.8c-0.1,3.3,0.5,7.5,1.1,8.8l0.3,0.5l0.3-0.5
					c1-1.5,1.5-3,1.6-4.7c0.1-2.2-0.8-4.6-2.3-7l-0.2-0.3L274.5,54z"/>
				<path class="st0" d="M272.8,61.6l-0.4,0.6c-1.5,2-3.5,8.6-3.5,11.2v0.5l0.1,0.6l0.5-0.3c2.7-1.7,4.1-4.2,4.2-7.5
					c0-1.4-0.2-2.9-0.7-4.4l-0.1-0.3L272.8,61.6z"/>
				<path class="st0" d="M278.4,71.8l-0.8,0.1c-2.8,0.5-10.6,4.9-11.9,6.7l-0.3,0.5l0.5,0.1c6.5,1.1,9.9-3.3,12-6.7l0.2-0.3
					L278.4,71.8z M277.8,72.1L277.8,72.1L277.8,72.1z"/>
				<path class="st0" d="M247.2,81.8c-0.2,0.1-4.9,2.5-7.9,6.5l-0.2,0.2l0.2,0.2c0.2,0.2,0.7,0.6,1,0.7l0.2,0.1l0.2-0.2
					c2.9-3.6,7.8-8,13.1-8.5c0.8,0.8,1.5,1.4,2.6,1.8c3,1,8.2,0.5,12.3-1.2l1-0.4l-1-0.3l0,0C258.9,78.2,251.4,79.8,247.2,81.8z"/>
				<path class="st0" d="M268.5,69.5l-0.6,0.3c-2.1,1.4-8.1,6.6-8.5,8.3l-0.1,0.4h0.4c6.6,0.6,8.1-4.5,8.8-8.4l0.1-0.3L268.5,69.5z"
					/>
			</g>
		</g>
		<g>
			<path class="st0" d="M100.8,29.6h8.3v7.6h-8.3V29.6z M101.5,82.5V45.7h7v36.8H101.5z"/>
			<path class="st0" d="M48.9,45.7h7v36.8h-6.8v-5.4H49c-2.8,4.6-7.5,6.5-12.6,6.5c-7.7,0-12.1-5.9-12.1-13.3V45.7h7v21.8
				c0,6.4,1.5,11.1,8.1,11.1c2.9,0,6.7-1.5,8.2-5.3c1.3-3.4,1.4-7.8,1.4-8.7V45.7H48.9z"/>
			<path class="st0" d="M69.8,51.2L69.8,51.2c2.4-4.6,7.6-6.5,11.2-6.5c2.6,0,13.9,0.7,13.9,12.5v25.4h-7V59.4
				c0-6.1-2.6-9.4-8.4-9.4c0,0-3.8-0.2-6.7,2.7c-1,1-2.9,2.6-2.9,9.8v20h-7V45.7h6.8L69.8,51.2L69.8,51.2z"/>
			<path class="st0" d="M137.6,57.5c-0.4-4.6-2.5-7.8-7.5-7.8c-6.6,0-9.2,5.7-9.2,14.3s2.6,14.4,9.2,14.4c4.6,0,7.4-3,7.8-8.2h6.9
				c-0.6,8.2-6.7,13.3-14.8,13.3c-11.7,0-16.4-8.3-16.4-19.1c0-10.7,5.4-19.7,17-19.7c7.7,0,13.5,4.9,13.9,12.8
				C144.5,57.5,137.6,57.5,137.6,57.5z"/>
			<path class="st0" d="M155.2,65.4c-0.5,6.4,2.1,13,9.2,13c5.4,0,8.1-2.1,8.9-7.4h7.3c-1.1,8.3-7.5,12.5-16.2,12.5
				c-11.7,0-16.4-8.3-16.4-19.1c0-10.7,5.4-19.7,17-19.7c10.8,0.2,16,7.2,16,17.3v3.4H155.2z M173.7,60.6c0.1-6.1-2.6-10.9-9.3-10.9
				c-5.8,0-9.2,4.9-9.2,10.9H173.7z"/>
			<path class="st0" d="M188.8,82.4V50.6h-6.3v-4.8h6.3v-7.9c0.2-8,6.3-10.1,11.4-10.1c1.7,0,3.3,0.4,5,0.7v5.8
				c-1.2-0.1-2.3-0.2-3.5-0.2c-3.9,0-6.2,1-6,5v6.7h8.5v4.8h-8.5v31.8C195.7,82.4,188.8,82.4,188.8,82.4z"/>
		</g>
	</g>
	<rect x="24" y="107.7" class="st0" width="257.2" height="1.4"/>
	<g>
		<path class="st0" d="M26.7,165.9H24v-26.2c0-1.8-0.1-3.6-0.2-5.1h2.8l0.1,3.3l0.1,0.1c1.6-2.7,4.7-4.1,7.7-4.1
			c6.7,0,9.3,6,9.3,11.9c0,5.7-2.6,12.1-9.1,12.1c-3.3,0-6-1.5-7.9-4.2h-0.1C26.7,153.7,26.7,165.9,26.7,165.9z M34.4,155.5
			c5.2,0,6.5-5.7,6.5-9.9c0-4.3-1.8-9.1-6.9-9.1c-5.3,0-7.3,4.4-7.3,9C26.7,150.6,28.5,155.5,34.4,155.5z"/>
		<path class="st0" d="M61,141.3c-0.3-3.7-2.2-4.9-5.4-4.9c-2.8,0-5.2,0.9-5.5,3.9h-2.9c0.7-4.6,4.1-6.4,8.5-6.4c5,0,8.1,2.3,8,7.5
			v10.7c0,1.8,0.1,3.6,0.2,5.1h-2.8l-0.1-3.3l0,0l-0.1,0.3c-1,1.9-4,3.7-7.1,3.7c-4.2,0-7.5-2.6-7.5-7c0-3.1,1.8-5.4,4.5-6.5
			c3-1.3,6.9-0.9,10.2-1C61,143.4,61,141.3,61,141.3z M54.3,155.5c5.9,0,7-4.9,6.8-9.6c-3.8,0.1-11.8-0.6-11.8,5.1
			C49.2,154,51.5,155.5,54.3,155.5z"/>
		<path class="st0" d="M71.7,157.3H69v-17.5c0-1.8-0.1-3.6-0.2-5.1h2.8l0.1,3.3h0.1c0.8-2.3,2.8-3.9,5.1-4c0.9,0,1.8,0,2.7,0v2.6
			c-0.5,0-1.1-0.2-1.7-0.2c-4,0-6.1,2.9-6.2,7.2C71.7,143.6,71.7,157.3,71.7,157.3z"/>
		<path class="st0" d="M95.1,141.3c-0.3-3.7-2.2-4.9-5.4-4.9c-2.8,0-5.2,0.9-5.5,3.9h-2.9c0.7-4.6,4.1-6.4,8.5-6.4
			c5,0,8.1,2.3,8,7.5v10.7c0,1.8,0.1,3.6,0.2,5.1h-2.8l-0.1-3.3H95l-0.1,0.3c-1,1.9-4,3.7-7.1,3.7c-4.2,0-7.5-2.6-7.5-7
			c0-3.1,1.8-5.4,4.5-6.5c3-1.3,6.9-0.9,10.2-1v-2.1H95.1z M88.4,155.5c5.9,0,7-4.9,6.8-9.6c-3.8,0.1-11.8-0.6-11.8,5.1
			C83.3,154,85.6,155.5,88.4,155.5z"/>
		<path class="st0" d="M126.2,141.6c-0.2-3.5-2.4-5.1-6.2-5.1c-4.1,0-6.7,4.3-6.7,9.5s2.6,9.5,6.7,9.5c3.5,0,5.9-2.2,6.2-5.3h2.9
			c-0.7,5.2-3.7,7.7-8.8,7.7c-6.8,0-9.9-5.8-9.9-12c0-6.1,3.4-12,10.1-12c4.6,0,8.4,2.8,8.6,7.6h-2.9V141.6z"/>
		<path class="st0" d="M146.4,141.3c-0.3-3.7-2.2-4.9-5.4-4.9c-2.8,0-5.2,0.9-5.5,3.9h-2.9c0.7-4.6,4.1-6.4,8.5-6.4
			c5,0,8.1,2.3,8,7.5v10.7c0,1.8,0.1,3.6,0.2,5.1h-2.8l-0.1-3.3h-0.1l-0.1,0.3c-1,1.9-4,3.7-7.1,3.7c-4.2,0-7.5-2.6-7.5-7
			c0-3.1,1.8-5.4,4.5-6.5c3-1.3,6.9-0.9,10.2-1v-2.1H146.4z M139.6,155.5c5.9,0,7-4.9,6.8-9.6c-3.8,0.1-11.8-0.6-11.8,5.1
			C134.5,154,136.9,155.5,139.6,155.5z"/>
		<path class="st0" d="M170.1,154l-0.1-0.2c-1.8,2.7-4.6,4.2-7.7,4.2c-6.7,0-9.3-6.4-9.3-12.1c0-5.9,2.6-11.9,9.3-11.9
			c3,0,6.2,1.4,7.7,4.1l0.1-0.1v-13.2h2.7v27.4c0,1.8,0.1,3.6,0.2,5.1h-2.8L170.1,154z M162.7,136.5c-5.1,0-6.8,4.8-6.8,9.1
			c0,4.2,1.2,9.9,6.4,9.9c5.9,0,7.7-4.9,7.7-10C170,140.9,168,136.5,162.7,136.5z"/>
		<path class="st0" d="M191.2,141.3c-0.3-3.7-2.2-4.9-5.4-4.9c-2.8,0-5.2,0.9-5.5,3.9h-2.9c0.7-4.6,4.1-6.4,8.5-6.4
			c5,0,8.1,2.3,8,7.5v10.7c0,1.8,0.1,3.6,0.2,5.1h-2.8l-0.1-3.3h-0.1l-0.1,0.3c-1,1.9-4,3.7-7.1,3.7c-4.2,0-7.5-2.6-7.5-7
			c0-3.1,1.8-5.4,4.5-6.5c3-1.3,6.9-0.9,10.2-1v-2.1H191.2z M184.4,155.5c5.9,0,7-4.9,6.8-9.6c-3.8,0.1-11.8-0.6-11.8,5.1
			C179.3,154,181.7,155.5,184.4,155.5z"/>
		<path class="st0" d="M210.7,157.3H208v-17.5c0-1.8-0.1-3.6-0.2-5.1h2.8l0.1,3.3l0.1,0.1c1.6-2.8,4.1-4.1,7.1-4.1
			c7.4,0,8,6.5,8,9.1v14.1h-2.7v-14.6c0-3.9-2.3-6.2-5.9-6.2c-4.5,0-6.5,3.7-6.5,7.8v13.1H210.7z"/>
		<path class="st0" d="M234,128.2h-3.2v-3.4h3.2V128.2z M233.8,134.7v22.6h-2.7v-22.6H233.8z"/>
		<path class="st0" d="M241.8,157.3h-2.7v-17.5c0-1.8-0.1-3.5-0.2-5.1h2.8l0.1,3.3l0.1,0.1c1.6-2.8,4.1-4.1,7.1-4.1
			c7.4,0,8,6.5,8,9.1v14.1h-2.7v-14.6c0-4-2.2-6.2-5.9-6.2c-4.5,0-6.5,3.7-6.5,7.8v13.1H241.8z M254.3,126c-0.5,2-1.8,3.8-4.1,3.8
			c-0.7,0-1.3-0.2-2-0.5c-0.7-0.2-1.5-0.4-2.4-0.4s-1.9,0.4-2.1,1.3H242c0.5-2.5,2.2-4,4.9-3.6c0.4,0,1.1,0.3,1.8,0.5
			s1.4,0.4,1.8,0.4c1,0,1.9-0.5,2.3-1.5L254.3,126L254.3,126z"/>
		<path class="st0" d="M282,146c0,5.9-3.3,12-10.5,12s-10.5-6-10.5-12s3.3-12,10.5-12C278.6,134,282,140,282,146z M271.4,136.5
			c-5.4,0-7.6,5.3-7.6,9.5s2.2,9.5,7.6,9.5s7.6-5.3,7.6-9.5S276.9,136.5,271.4,136.5z"/>
	</g>
</g>
</svg>
